<svg width="64" height="64" viewBox="0 0 64 64" fill="none" xmlns="http://www.w3.org/2000/svg">
<path d="M27.3332 50.9H36.6665C43.2207 50.9 46.4978 50.9 48.8519 49.3832C49.871 48.7265 50.746 47.8828 51.4269 46.9C52.9999 44.63 52.9999 41.4699 52.9999 35.1497C52.9999 28.8295 52.9995 25.67 51.4266 23.3999C50.7456 22.4172 49.8706 21.5734 48.8515 20.9168C46.4974 19.4 43.2204 19.4 36.6662 19.4H27.3329C20.7787 19.4 17.5016 19.4 15.1475 20.9168C14.1284 21.5734 13.2534 22.4172 12.5725 23.3999C10.9999 25.6695 10.9999 28.8282 10.9999 35.1455L10.9999 35.1497C10.9999 41.4699 10.9999 44.63 12.5728 46.9C13.2538 47.8828 14.1288 48.7265 15.1479 49.3832C17.502 50.9 20.7791 50.9 27.3332 50.9Z" fill="white"/>
<path fill-rule="evenodd" clip-rule="evenodd" d="M31.9999 30.0871C29.1004 30.0871 26.7499 32.3537 26.7499 35.1497C26.7499 37.9457 29.1004 40.2123 31.9999 40.2123C34.8994 40.2123 37.2499 37.9457 37.2499 35.1497C37.2499 32.3537 34.8994 30.0871 31.9999 30.0871ZM23.2499 35.1497C23.2499 30.4897 27.1674 26.7121 31.9999 26.7121C36.8324 26.7121 40.7499 30.4897 40.7499 35.1497C40.7499 39.8097 36.8324 43.5874 31.9999 43.5874C27.1674 43.5874 23.2499 39.8097 23.2499 35.1497Z" fill="#4958E9"/>
<path fill-rule="evenodd" clip-rule="evenodd" d="M43.0832 28.3996C43.0832 27.4676 43.8667 26.7121 44.8332 26.7121H45.9999C46.9664 26.7121 47.7499 27.4676 47.7499 28.3996C47.7499 29.3316 46.9664 30.0871 45.9999 30.0871H44.8332C43.8667 30.0871 43.0832 29.3316 43.0832 28.3996Z" fill="#4958E9"/>
<path fill-rule="evenodd" clip-rule="evenodd" d="M23.5999 15.2C23.5999 14.0402 24.4678 13.1 25.5383 13.1H38.4614C39.532 13.1 40.3999 14.0402 40.3999 15.2C40.3999 16.3598 39.532 17.3 38.4614 17.3H25.5383C24.4678 17.3 23.5999 16.3598 23.5999 15.2Z" fill="white"/>
</svg>
