<svg width="126" height="125" viewBox="0 0 126 125" fill="none" xmlns="http://www.w3.org/2000/svg">
<rect x="1" y="0.5" width="124" height="124" rx="62" stroke="#0D0F2B" stroke-opacity="0.02"/>
<rect x="19" y="18.5" width="89" height="89" rx="44.5" stroke="#0D0F2B" stroke-opacity="0.05"/>
<path fill-rule="evenodd" clip-rule="evenodd" d="M91.5 63C91.5 78.464 78.964 91 63.5 91C48.036 91 35.5 78.464 35.5 63C35.5 47.536 48.036 35 63.5 35C78.964 35 91.5 47.536 91.5 63ZM74.7849 54.5151C75.605 55.3352 75.605 56.6648 74.7849 57.4849L60.7849 71.4849C59.9648 72.305 58.6352 72.305 57.8151 71.4849L52.2151 65.8849C51.395 65.0648 51.395 63.7352 52.2151 62.9151C53.0352 62.095 54.3648 62.095 55.1849 62.9151L59.3 67.0302L65.5575 60.7726L71.8151 54.5151C72.6352 53.695 73.9648 53.695 74.7849 54.5151Z" fill="#4958E9"/>
</svg>
