<svg width="102" height="101" viewBox="0 0 102 101" fill="none" xmlns="http://www.w3.org/2000/svg">
<path d="M50.9999 11.9987C72.0086 11.9987 89.0399 29.03 89.0399 50.0387C89.0399 71.0474 72.0086 88.0787 50.9999 88.0787C29.9912 88.0787 12.9598 71.0474 12.9598 50.0387C12.9599 29.03 29.9912 11.9987 50.9999 11.9987Z" stroke="#0D0F2B" stroke-opacity="0.1" stroke-width="0.5106"/>
<path d="M51.1272 0.333984C78.6485 0.333984 100.959 22.6448 100.959 50.166C100.959 77.6875 78.6487 99.998 51.1272 99.998C23.6059 99.9978 1.29517 77.6873 1.29517 50.166C1.2954 22.6449 23.6061 0.334221 51.1272 0.333984Z" stroke="#0D0F2B" stroke-opacity="0.1" stroke-width="0.668886"/>
<path d="M51.0612 61.1354C51.6865 61.1354 52.211 60.9236 52.6348 60.4998C53.0586 60.0761 53.2697 59.5522 53.2682 58.9284C53.2668 58.3045 53.0549 57.7807 52.6326 57.3569C52.2103 56.9332 51.6865 56.7213 51.0612 56.7213C50.4358 56.7213 49.912 56.9332 49.4897 57.3569C49.0674 57.7807 48.8556 58.3045 48.8541 58.9284C48.8526 59.5522 49.0645 60.0768 49.4897 60.502C49.915 60.9272 50.4388 61.1384 51.0612 61.1354ZM51.0612 52.3072C51.6865 52.3072 52.211 52.0953 52.6348 51.6715C53.0586 51.2478 53.2697 50.724 53.2682 50.1001V41.2718C53.2682 40.6465 53.0564 40.1227 52.6326 39.7004C52.2088 39.2781 51.685 39.0662 51.0612 39.0648C50.4373 39.0633 49.9135 39.2752 49.4897 39.7004C49.066 40.1256 48.8541 40.6494 48.8541 41.2718V50.1001C48.8541 50.7254 49.066 51.25 49.4897 51.6737C49.9135 52.0975 50.4373 52.3086 51.0612 52.3072ZM51.0612 72.1708C48.0081 72.1708 45.1389 71.5911 42.4536 70.4316C39.7683 69.2722 37.4325 67.7 35.4462 65.7151C33.4598 63.7302 31.8876 61.3944 30.7297 58.7077C29.5717 56.0209 28.992 53.1517 28.9905 50.1001C28.989 47.0485 29.5687 44.1793 30.7297 41.4925C31.8906 38.8058 33.4627 36.47 35.4462 34.4851C37.4296 32.5002 39.7654 30.928 42.4536 29.7686C45.1418 28.6091 48.011 28.0294 51.0612 28.0294C54.1113 28.0294 56.9805 28.6091 59.6687 29.7686C62.3569 30.928 64.6928 32.5002 66.6762 34.4851C68.6596 36.47 70.2325 38.8058 71.3949 41.4925C72.5573 44.1793 73.1363 47.0485 73.1319 50.1001C73.1274 53.1517 72.5477 56.0209 71.3927 58.7077C70.2376 61.3944 68.6655 63.7302 66.6762 65.7151C64.6869 67.7 62.3511 69.2729 59.6687 70.4338C56.9864 71.5947 54.1172 72.1737 51.0612 72.1708Z" fill="#E94949"/>
</svg>
